<svg xmlns="http://www.w3.org/2000/svg" viewBox="0 0 97.49 77.54"><defs><style>.cls-1{fill:#fff;}</style></defs><g id="Layer_2" data-name="Layer 2"><g id="Layer_1-2" data-name="Layer 1"><path class="cls-1" d="M16,39.84c1.81-.28-4.1,3.36-9,7.31C1.49,51.56,0,53.27.66,56.36s4.9,8.12,7.14,8.06c2.39-.07,5.32-2.21,5.32-2.21l6.45-4.37c1.37-.93-.56,3.41.87,4.92,2,2.11,2.82,1.68,4.35,1.2s3.35-1.21,7.64-2.7c4.68-1.63,7.18-2.69,8.28-2.79s1.37.79,2.25,2c0,0,2.78,4.66,3.63,4.91,1.79.75,5.56-.58,11.19-3.33s6.91-3.49,6.91-3.49l4.4-2.78a17.32,17.32,0,0,0-2.09,4c-.63,2.1-1.34,3.56-.9,5.2a3.75,3.75,0,0,0,3.26,2.78c1.46.16,3.55-.92,9.16-4.2,3.86-2.24,9.82-6.73,10.58-7.29s.2.3.2.3a41.59,41.59,0,0,1-4.31,6c-2.56,3.19,1.18,3.26,2.91,1.39,1.22-1.18,9.26-8.57,9.59-12.84,0-3.61-3.55-4-5.75-2.78S88,50.67,85.52,52.1c-2.19,1.32-3.85,2.27-5,3s-.31-1-.31-1c2.26-3,7.5-9,8.59-11.77s-2.92-7.09-6.27-5.16a50.65,50.65,0,0,1-8.42,3.65c-3.08,1.08-5.74,2.38-3.75,0s3-3.38,4.2-4.66c2.61-2.73,5.77-5.93,6.33-7.86.85-2.91-.71-4.2-1.42-4.72-1.31-.93-3.48-1.09-4-2.42-.36-.93-.72-3.66-1.14-4.76a4.74,4.74,0,0,0-4.73-3.17,11.82,11.82,0,0,0-5.86,1.69s-5.59,4.06-7.85,5.6c-3.19,2.19,2.24-3.82,2.24-3.82s5.87-5.87,4-8.49a37.73,37.73,0,0,0-4.29-5.39c-2.3-2.24-8.34,2.6-8.34,2.6s-2.24-4-3.73-5c-1-.67-3.29-1.35-14.25,4.85-3.47,2-6,3.63-10.8,6.65-2.48,1.55-5.43,3.42-9.58,6.11,0,0-1.35.7-.53-.45a41.76,41.76,0,0,1,3.66-4.41c4.35-4.83,9.9-7.61,11.58-8.77.55-.38,1.26-2.52.32-2.2-2.77.72-11.06,4.87-16.6,10.72C5.7,16.85,1.18,21.72,1.74,26a3.19,3.19,0,0,0,3.17,2.7c1.88.11,3.4-.14,7.45-2.14,2.27-1.12,6.27-3.51,6.53-3.14s-.9,1-2.89,2.32c-1.4.94-2.31,1.49-6.25,4-3.16,2-9.09,5.78-9.63,8.17s.64,6,4.23,5.13"/><path class="cls-1" d="M68.71,74.56c-8.58-.32-22.26-.73-25-1.87-1.88-.83,1.49-4.58.56-5.8s-3.75-6.32-4.89-6.06c-2,.43-3.94,6.83-4.59,11.22-.21,1.39-2.7,1.15-7.41,1.53-2.83.23-9.51.55-9.51.55l-5.86.4c-.76.06-3.91.23-5.92.5s-1.21,2.51,1.37,2.45c25.5,0,29.41.57,30.59-1.8,1.36,1.1,3.36,1.81,8.44,1.76h17c6.48,0,17.8-.27,20.07-.38s2.78-1.62-.3-1.74"/></g></g></svg>